#!OML:ASF H:\ManfredObstacles\Project 1\Capture day 2\Session 1\male.ASF
:FULLY-SPECIFIED
:DEGREES
176
root 1.48713 14.9619 -12.2375 -175.116 4.82425 177.106
lowerback 8.23788 -5.60121 -9.1174
upperback 4.58052 -7.68835 -0.0410029
thorax 1.43237 -3.9023 5.46529
lowerneck -28.2451 4.74905 7.28859
upperneck 40.542 8.44085 -3.5632
head 21.9036 4.54334 -0.607992
rclavicle 6.24184e-014 9.54166e-015
rhumerus -72.3841 -7.28004 -71.7285
rradius 86.6931
rwrist 4.39155
rhand -10.1112 -1.96004
rfingers 7.12502
rthumb 15.8766 -31.3292
lclavicle 6.24184e-014 9.54166e-015
lhumerus -21.9322 -26.5503 76.1754
lradius 83.5952
lwrist -19.7039
lhand -11.3808 7.1484
lfingers 7.12502
lthumb 14.6536 36.6106
rfemur -49.8642 9.94136 3.62779
rtibia 106.826
rfoot -12.6468 -20.7001
rtoes -22.727
lfemur -22.2335 -2.80536 -25.8208
ltibia 58.4752
lfoot -2.14569 25.4953
ltoes -12.2318
177
root 1.51418 15.0224 -12.4767 -174.863 5.09749 177.017
lowerback 8.01387 -5.64268 -9.38171
upperback 4.53726 -7.75154 0.0443065
thorax 1.57155 -3.95164 5.67462
lowerneck -28.161 4.85916 7.37956
upperneck 40.5275 8.65473 -3.70976
head 21.9103 4.61467 -0.64505
rclavicle -7.196e-014 2.78299e-014
rhumerus -72.4464 -7.42085 -71.8006
rradius 86.5491
rwrist 4.16839
rhand -10.0324 -2.03423
rfingers 7.12502
rthumb 15.9525 -31.3973
lclavicle -7.196e-014 2.78299e-014
lhumerus -21.2037 -27.2391 76.2552
lradius 84.2889
lwrist -20.0106
lhand -11.4557 6.86333
lfingers 7.12502
lthumb 14.5814 36.3308
rfemur -51.1897 9.75501 4.38566
rtibia 102.297
rfoot -12.6127 -21.415
rtoes -22.9987
lfemur -20.645 -2.99315 -26.0146
ltibia 56.8996
lfoot -1.66451 25.7642
ltoes -11.9944
178
root 1.53981 15.0904 -12.7224 -174.524 5.49504 176.9
lowerback 7.6803 -5.65103 -9.65242
upperback 4.44089 -7.76873 0.120453
thorax 1.70694 -3.9791 5.86821
lowerneck -28.0699 4.96855 7.47922
upperneck 40.5691 8.87423 -3.82965
head 21.9549 4.69758 -0.666149
rclavicle -1.03766e-013 3.81667e-014
rhumerus -72.4437 -7.51173 -71.9042
rradius 86.3933
rwrist 3.98872
rhand -9.95851 -2.11005
rfingers 7.12502
rthumb 16.0236 -31.4674
lclavicle -1.03766e-013 3.81667e-014
lhumerus -20.7731 -27.9362 76.4605
lradius 84.9771
lwrist -20.1512
lhand -11.4925 6.61485
lfingers 7.12502
lthumb 14.546 36.0849
rfemur -52.3761 9.5009 5.04807
rtibia 97.6714
rfoot -12.6431 -21.9238
rtoes -23.0081
lfemur -19.0343 -3.18017 -26.2794
ltibia 55.1094
lfoot -1.00181 25.9904
ltoes -11.6751
179
root 1.56439 15.1669 -12.9743 -174.131 5.97372 176.765
lowerback 7.27211 -5.63975 -9.92023
upperback 4.30986 -7.75611 0.192054
thorax 1.84049 -3.99192 6.04929
lowerneck -27.9901 5.08896 7.5885
upperneck 40.6217 9.10724 -3.94399
head 22.0136 4.78797 -0.681491
rclavicle -3.49861e-014 -3.97569e-015
rhumerus -72.3812 -7.5486 -72.0417
rradius 86.2482
rwrist 3.88922
rhand -9.89962 -2.16478
rfingers 7.12502
rthumb 16.0803 -31.5176
lclavicle -3.49861e-014 -3.97569e-015
lhumerus -20.6317 -28.6294 76.7914
lradius 85.6701
lwrist -20.1537
lhand -11.4729 6.41709
lfingers 7.12502
lthumb 14.5649 35.8857
rfemur -53.3741 9.18661 5.65411
rtibia 92.9699
rfoot -12.6016 -22.0843
rtoes -22.8428
lfemur -17.3983 -3.39295 -26.6056
ltibia 53.1323
lfoot -0.103454 26.1073
ltoes -11.2618
180
root 1.58807 15.2511 -13.2327 -173.721 6.49488 176.597
lowerback 6.82076 -5.62297 -10.1907
upperback 4.15458 -7.73239 0.2494
thorax 1.96849 -3.99833 6.2141
lowerneck -27.9169 5.2089 7.68444
upperneck 40.7103 9.35093 -4.03619
head 22.0996 4.88525 -0.678455
rclavicle 4.53229e-014 0
rhumerus -72.2839 -7.52811 -72.2124
rradius 86.13
rwrist 3.91618
rhand -9.85206 -2.10813
rfingers 7.12502
rthumb 16.1261 -31.4572
lclavicle 4.53229e-014 0
lhumerus -20.7882 -29.301 77.2412
lradius 86.3847
lwrist -20.0474
lhand -11.3669 6.24399
lfingers 7.12502
lthumb 14.667 35.7052
rfemur -54.1396 8.82249 6.19958
rtibia 88.2308
rfoot -12.3362 -21.7965
rtoes -22.6225
lfemur -15.7185 -3.64837 -27.0122
ltibia 50.9962
lfoot 1.05249 26.0811
ltoes -10.7896
181
root 1.61143 15.3423 -13.4962 -173.336 7.02356 176.405
lowerback 6.36591 -5.60537 -10.451
upperback 4.00026 -7.70232 0.287456
thorax 2.09412 -3.99988 6.35339
lowerneck -27.8653 5.34048 7.78944
upperneck 40.7764 9.59674 -4.12976
head 22.178 4.9819 -0.677101
rclavicle 5.80451e-014 2.06736e-014
rhumerus -72.1448 -7.46484 -72.44
rradius 86.0696
rwrist 4.03003
rhand -9.81024 -2.02747
rfingers 7.12502
rthumb 16.1664 -31.3733
lclavicle 5.80451e-014 2.06736e-014
lhumerus -21.2114 -29.9606 77.7867
lradius 87.1329
lwrist -19.8741
lhand -11.1798 6.09139
lfingers 7.12502
lthumb 14.8473 35.5394
rfemur -54.6394 8.43388 6.71015
rtibia 83.4961
rfoot -11.7224 -21.005
rtoes -22.4218
lfemur -13.9857 -3.93168 -27.4796
ltibia 48.7431
lfoot 2.43057 25.8578
ltoes -10.1786
182
root 1.63555 15.4392 -13.7653 -173.013 7.5441 176.212
lowerback 5.9243 -5.58939 -10.6877
upperback 3.86856 -7.66762 0.312465
thorax 2.23037 -3.99811 6.46668
lowerneck -27.8151 5.49732 7.93892
upperneck 40.7785 9.85506 -4.26496
head 22.2214 5.0804 -0.703555
rclavicle 1.78906e-014 -2.78299e-015
rhumerus -71.9549 -7.35621 -72.7236
rradius 86.045
rwrist 4.23568
rhand -9.7776 -1.84749
rfingers 7.12502
rthumb 16.1978 -31.1908
lclavicle 1.78906e-014 -2.78299e-015
lhumerus -21.8752 -30.5943 78.4231
lradius 87.9142
lwrist -19.652
lhand -10.9404 5.95196
lfingers 7.12502
lthumb 15.0779 35.3828
rfemur -54.8495 8.05663 7.22623
rtibia 78.8146
rfoot -10.7414 -19.7376
rtoes -22.2645
lfemur -12.1858 -4.19962 -27.9684
ltibia 46.4215
lfoot 3.97958 25.4124
ltoes -9.51169
183
root 1.66138 15.5378 -14.0392 -172.77 8.04646 176.031
lowerback 5.51542 -5.57206 -10.8868
upperback 3.75803 -7.62653 0.320566
thorax 2.36191 -3.99099 6.54488
lowerneck -27.7541 5.65641 8.11115
upperneck 40.7469 10.1009 -4.41586
head 22.2405 5.17478 -0.746626
rclavicle 5.58585e-014 -5.1684e-015
rhumerus -71.7443 -7.20903 -73.0707
rradius 86.0754
rwrist 4.49787
rhand -9.73667 -1.635
rfingers 7.12502
rthumb 16.2372 -30.9751
lclavicle 5.58585e-014 -5.1684e-015
lhumerus -22.7641 -31.2202 79.1351
lradius 88.717
lwrist -19.4108
lhand -10.686 5.81567
lfingers 7.12502
lthumb 15.3229 35.228
rfemur -54.79 7.69828 7.77138
rtibia 74.2523
rfoot -9.45306 -18.0643
rtoes -22.1612
lfemur -10.3322 -4.40324 -28.45
ltibia 44.0916
lfoot 5.65305 24.7369
ltoes -8.84903
184
root 1.68928 15.6353 -14.3179 -172.604 8.51075 175.868
lowerback 5.11982 -5.55649 -11.0376
upperback 3.67846 -7.58042 0.311906
thorax 2.50874 -3.98039 6.57934
lowerneck -27.6696 5.82763 8.33827
upperneck 40.661 10.3417 -4.60978
head 22.224 5.26877 -0.824887
rclavicle -3.57812e-015 1.39149e-014
rhumerus -71.508 -7.03117 -73.48
rradius 86.1597
rwrist 4.80023
rhand -9.68326 -1.43209
rfingers 7.12502
rthumb 16.2886 -30.7679
lclavicle -3.57812e-015 1.39149e-014
lhumerus -23.8262 -31.8486 79.9023
lradius 89.5176
lwrist -19.203
lhand -10.4187 5.66055
lfingers 7.12502
lthumb 15.5804 35.053
rfemur -54.4914 7.3388 8.36569
rtibia 69.8697
rfoot -7.96293 -16.115
rtoes -22.0247
lfemur -8.45552 -4.50654 -28.8973
ltibia 41.8066
lfoot 7.37913 23.8387
ltoes -8.205
185
root 1.71937 15.7291 -14.6001 -172.496 8.91965 175.733
lowerback 4.74327 -5.54342 -11.1314
upperback 3.61267 -7.53425 0.29676
thorax 2.65056 -3.96782 6.57788
lowerneck -27.5735 5.97488 8.53705
upperneck 40.5754 10.5509 -4.78276
head 22.1972 5.35108 -0.895946
rclavicle -9.68081e-014 -1.35174e-014
rhumerus -71.2641 -6.8177 -73.9385
rradius 86.2891
rwrist 5.10815
rhand -9.63388 -1.22501
rfingers 7.12502
rthumb 16.3362 -30.557
lclavicle -9.68081e-014 -1.35174e-014
lhumerus -25.0354 -32.4839 80.7289
lradius 90.2837
lwrist -19.0464
lhand -10.1757 5.4798
lfingers 7.12502
lthumb 15.8145 34.8539
rfemur -54.002 6.95502 9.01816
rtibia 65.7229
rfoot -6.3981 -14.0135
rtoes -21.8882
lfemur -6.60229 -4.49441 -29.2817
ltibia 39.613
lfoot 9.13461 22.7352
ltoes -7.66412
186
root 1.75152 15.8179 -14.8857 -172.423 9.2615 175.617
lowerback 4.36096 -5.53597 -11.1693
upperback 3.54808 -7.49193 0.273413
thorax 2.78855 -3.95522 6.53712
lowerneck -27.4785 6.08274 8.69769
upperneck 40.5447 10.7205 -4.91758
head 22.1992 5.42255 -0.949561
rclavicle 8.54774e-014 7.55382e-015
rhumerus -71.0358 -6.56573 -74.4355
rradius 86.4849
rwrist 5.38023
rhand -9.55081 -1.05264
rfingers 7.12502
rthumb 16.4162 -30.378
lclavicle 8.54774e-014 7.55382e-015
lhumerus -26.3705 -33.1312 81.615
lradius 90.9863
lwrist -18.9796
lhand -9.98491 5.26629
lfingers 7.12502
lthumb 15.9982 34.6257
rfemur -53.3708 6.51293 9.71928
rtibia 61.8583
rfoot -4.86563 -11.8872
rtoes -21.8277
lfemur -4.80721 -4.36649 -29.5945
ltibia 37.5384
lfoot 10.8587 21.4755
ltoes -7.20222
187
root 1.78576 15.9011 -15.1739 -172.361 9.52876 175.513
lowerback 3.94919 -5.53186 -11.1648
upperback 3.48165 -7.44946 0.250574
thorax 2.93527 -3.94191 6.47128
lowerneck -27.3925 6.15695 8.81904
upperneck 40.5326 10.8502 -5.02784
head 22.2066 5.47839 -0.993756
rclavicle -5.66536e-014 -2.70347e-014
rhumerus -70.8165 -6.2905 -74.944
rradius 86.7324
rwrist 5.60123
rhand -9.45012 -0.902043
rfingers 7.12502
rthumb 16.5131 -30.2194
lclavicle -5.66536e-014 -2.70347e-014
lhumerus -27.7759 -33.7981 82.5593
lradius 91.5999
lwrist -18.9769
lhand -9.84649 5.01828
lfingers 7.12502
lthumb 16.1315 34.3669
rfemur -52.644 5.98909 10.4543
rtibia 58.3115
rfoot -3.43445 -9.87254
rtoes -21.8404
lfemur -3.10324 -4.14074 -29.8328
ltibia 35.5991
lfoot 12.5624 20.0834
ltoes -6.75063
188
root 1.82179 15.9786 -15.4645 -172.291 9.70975 175.429
lowerback 3.50734 -5.53403 -11.1098
upperback 3.39148 -7.41439 0.238208
thorax 3.0695 -3.93036 6.38752
lowerneck -27.287 6.18517 8.89183
upperneck 40.5641 10.943 -5.11417
head 22.2281 5.52174 -1.02655
rclavicle 5.27773e-014 -2.26615e-014
rhumerus -70.6421 -5.97815 -75.4315
rradius 87.0281
rwrist 5.76413
rhand -9.32582 -0.722675
rfingers 7.12502
rthumb 16.6328 -30.03
lclavicle 5.27773e-014 -2.26615e-014
lhumerus -29.2655 -34.4532 83.5956
lradius 92.1088
lwrist -19.0477
lhand -9.74335 4.72759
lfingers 7.12502
lthumb 16.2308 34.0682
rfemur -51.8477 5.36502 11.2244
rtibia 55.1056
rfoot -2.16941 -8.09367
rtoes -22.0461
lfemur -1.50664 -3.84561 -29.9852
ltibia 33.8083
lfoot 14.2463 18.5922
ltoes -6.26879
189
root 1.85934 16.0501 -15.7564 -172.222 9.79357 175.313
lowerback 3.04059 -5.54307 -11.053
upperback 3.2858 -7.38677 0.219396
thorax 3.20194 -3.92152 6.29444
lowerneck -27.1658 6.17934 8.93979
upperneck 40.6034 10.9958 -5.19016
head 22.242 5.55092 -1.06087
rclavicle 1.38155e-014 -1.31198e-014
rhumerus -70.4797 -5.66021 -75.905
rradius 87.3611
rwrist 5.85716
rhand -9.17297 -0.549481
rfingers 7.12502
rthumb 16.7799 -29.8444
lclavicle 1.38155e-014 -1.31198e-014
lhumerus -30.7803 -35.1097 84.6849
lradius 92.5058
lwrist -19.1786
lhand -9.65951 4.40323
lfingers 7.12502
lthumb 16.3115 33.7372
rfemur -51.0018 4.62281 11.9617
rtibia 52.2636
rfoot -1.12724 -6.67391
rtoes -22.3433
lfemur -0.0220377 -3.48824 -30.099
ltibia 32.1891
lfoot 15.8714 17.0262
ltoes -5.61826
190
root 1.89887 16.1157 -16.0496 -172.15 9.79702 175.186
lowerback 2.55362 -5.55599 -10.9927
upperback 3.15966 -7.36433 0.206078
thorax 3.32565 -3.91423 6.20449
lowerneck -27.0199 6.1364 8.96026
upperneck 40.6659 11.018 -5.2626
head 22.2585 5.56958 -1.09705
rclavicle 9.93923e-015 2.50469e-014
rhumerus -70.3346 -5.31246 -76.3601
rradius 87.7233
rwrist 5.88488
rhand -9.02287 -0.386608
rfingers 7.12502
rthumb 16.9244 -29.6692
lclavicle 9.93923e-015 2.50469e-014
lhumerus -32.3309 -35.7211 85.8466
lradius 92.7931
lwrist -19.3331
lhand -9.60716 4.04414
lfingers 7.12502
lthumb 16.3619 33.374
rfemur -50.1164 3.81993 12.6662
rtibia 49.7931
rfoot -0.306606 -5.74641
rtoes -22.6321
lfemur 1.34164 -3.06361 -30.1478
ltibia 30.7757
lfoot 17.3713 15.4655
ltoes -4.86206
